<svg xmlns="http://www.w3.org/2000/svg" version="1.1" xmlns:xlink="http://www.w3.org/1999/xlink" xmlns:svgjs="http://svgjs.dev/svgjs" width="200px" height="70px" viewBox="0 0 1000 600"><rect width="1000" height="600" x="0" y="0" fill="#d50050"/><g><rect width="333.3333333333333" height="333.3333333333333" rx="13.333333333333334" ry="13.333333333333334" y="261.4832956206799" fill="#1a1a1d" transform="matrix(0.5224418715391628,0,0,0.5224418715391627,-4.88004712520918,76.31653506045353)" x="258.8206481933594"/><path d="M327.06113049449147 371.5555765890607L326.1495054370554 371.5555765890607L300.1828949300865 447.3380853959224L352.4984103229491 447.3380853959224L327.06113049449147 371.5555765890607ZM342.7940145502427 354.7934384362042L388.37526742204545 474.9220951983424Q390.0220739774138 479.2743696661016 391.5218442331957 482.33272469749994Q393.02161448897755 485.3910797288984 394.58019926459406 487.74366052228174L394.58019926459406 487.74366052228174Q396.96218731789475 488.36121298054485 399.40298989102996 488.5376565400486Q401.81438520424797 488.6846928396351 404.5198531166388 488.6846928396351L404.5198531166388 488.6846928396351L409.04857114390177 488.6846928396351L412.04811165546556 503.1530647189428Q405.1374055749019 502.12381062183755 398.9618809922706 501.9179598024165Q392.81576366955653 501.71210898299546 387.02253346585 501.71210898299546L387.02253346585 501.71210898299546Q382.78788803775996 501.71210898299546 378.9061297286774 501.77092350283004Q375.0537786795121 501.8297380226646 371.31905667001604 501.9767743222511Q367.58433466051997 502.12381062183755 363.87901991094117 502.38847596109315Q360.14429790144504 502.6531413003488 356.2331323324452 503.1530647189428L356.2331323324452 503.1530647189428L354.2628459179866 488.6846928396351L356.02728151302415 488.6846928396351Q359.02682202458794 488.6846928396351 361.61466089730965 488.5964710598832Q364.1730925101141 488.478842020214 366.2610079642418 487.74366052228174L366.2610079642418 487.74366052228174Q366.14337892457263 485.3910797288984 365.46701194647494 482.27391017766536Q364.82005222829446 479.1861478863497 363.261467452678 475.2455750574326L363.261467452678 475.2455750574326L356.43898315186624 457.98351348598214L296.7716527796806 457.98351348598214L291.1842733953951 474.9220951983424Q289.94916847886884 478.65681720783846 289.3904305404403 481.39169238014665Q288.83169260201174 484.12656755245473 288.83169260201174 486.5085556057554L288.83169260201174 486.5085556057554Q288.83169260201174 487.3319588834396 289.53746684002675 487.74366052228174Q290.2726483379591 488.1553621611238 291.36071695489886 488.36121298054485Q292.4487855718387 488.5964710598832 293.74270500819955 488.62587831980045Q295.0366244445604 488.6846928396351 296.2717293610866 488.6846928396351L296.2717293610866 488.6846928396351L301.00629820777067 488.6846928396351L300.09467315033464 503.1530647189428Q294.3014429466281 502.12381062183755 288.86109986192906 501.9179598024165Q283.4501640371473 501.71210898299546 278.15685725203474 501.71210898299546L278.15685725203474 501.71210898299546Q270.3051188541177 501.71210898299546 263.3944127735541 501.9179598024165Q256.4542994330732 502.12381062183755 248.60256103515619 503.1530647189428L248.60256103515619 503.1530647189428L251.69032332647186 488.6846928396351L256.4542994330732 488.6846928396351Q259.2479891252159 488.6846928396351 261.68879169835117 488.5964710598832Q264.1001870115691 488.478842020214 266.3939532851179 487.74366052228174L266.3939532851179 487.74366052228174Q268.1289816202381 485.3910797288984 269.6875663958546 482.27391017766536Q271.24615117147107 479.1861478863497 272.6871069074184 475.2455750574326L272.6871069074184 475.2455750574326Q273.9222118239447 471.8343329070267 276.62767973633555 464.8059977867939Q279.3037403888091 457.77766266656107 282.92083335863606 448.51437579261403Q286.53792632846296 439.2804961785844 290.74316449663576 428.6056608286073Q294.91899540489123 417.9602327385476 299.1536408329813 407.3148046484879L299.1536408329813 407.3148046484879L320.6503478325218 353.14663188083586L330.1783000457244 353.14663188083586Q334.8246471126566 353.14663188083586 337.5595222849647 353.55833351967794Q340.2943974572729 353.97003515852003 342.7940145502427 354.7934384362042L342.7940145502427 354.7934384362042ZM459.92313080081703 395.0225700030598L459.92313080081703 419.9305191530062Q463.74607459006506 413.8432163501267 467.48079659956113 408.6675386046833Q471.18611134913994 403.49186085923986 475.4795712970646 399.7865461096611Q479.7730312449892 396.051824100165 484.9487089904327 393.99331590595455Q490.12438673587604 391.90540045182684 496.8292419970186 391.90540045182684L496.8292419970186 391.90540045182684Q503.2400246589883 391.90540045182684 506.53363776972503 392.96406180884935Q509.85665814037907 393.99331590595455 511.6210937354166 395.0225700030598L511.6210937354166 395.0225700030598L509.0332548626949 423.54761212283313L499.71115346891327 423.54761212283313L497.24094363586073 408.46168778526226Q494.447253943718 408.1382079261721 492.8886691681015 407.932357106751Q491.3594916524023 407.7265062873299 490.21260851562795 407.7265062873299L490.21260851562795 407.7265062873299Q485.3604106292747 407.7265062873299 480.1259183639968 410.66723227905914Q474.92083335863606 413.63736553070567 470.56855889087683 418.5483779368934Q466.2162844231176 423.4593903430812 463.4225947309748 429.8113584852163Q460.65831229874937 436.1633266273514 460.65831229874937 442.9858109281632L460.65831229874937 442.9858109281632L460.65831229874937 477.8334139301543Q460.65831229874937 482.1856883979135 460.86416311817044 485.00878534997355Q461.07001393759145 487.8612895619509 462.2463043342832 489.7139469367403Q463.4225947309748 491.56660431152966 465.98102634377926 492.6252656685522Q468.5100506966663 493.6545197656574 473.15639776359853 494.36029400367244L473.15639776359853 494.36029400367244L474.0974300809519 503.0648429391909Q466.62798606195963 502.4472904809278 460.5406832590802 502.06499610200297Q454.45338045620076 501.71210898299546 448.542521212825 501.71210898299546L448.542521212825 501.71210898299546Q442.9551418285396 501.71210898299546 437.33835518433676 502.03558884208564Q431.6921612802167 502.3296614412586 425.3990076579162 503.0648429391909L425.3990076579162 503.0648429391909L425.81070929675826 494.36029400367244Q430.66290718311143 493.74274154540933 433.3095605756678 492.91933826772515Q435.92680670830674 492.0959349900409 437.1325043649157 490.53735021442446Q438.3087947616074 489.0081726987253 438.5146455810284 486.6261846454246Q438.7204964004495 484.24419659212396 438.7204964004495 480.50947458262783L438.7204964004495 480.50947458262783L438.7204964004495 413.63736553070567Q438.7204964004495 411.75530089599897 438.57346010086303 409.9614580410441Q438.42642380127654 408.1382079261721 437.89709312276534 406.49140137080366L437.89709312276534 406.49140137080366Q436.456137386818 405.7562198728714 434.80933083144964 405.3445182340293Q433.13311701616396 404.9328165951872 430.7805362227806 404.9328165951872L430.7805362227806 404.9328165951872L419.0764467756984 404.9328165951872L419.0764467756984 395.0225700030598Q420.3115516922246 394.69909014396956 422.81116878519447 394.34620302496205Q425.281378618247 393.99331590595455 428.5455844690664 393.66983604686436Q431.80979031988585 393.3757634476914 435.5739195892992 393.16991262827037Q439.3380488587126 392.96406180884935 443.27862168762977 392.96406180884935L443.27862168762977 392.96406180884935Q448.24844861365216 392.96406180884935 452.6301303413286 393.4051707076087Q457.04121932892247 393.8756868662854 459.92313080081703 395.0225700030598L459.92313080081703 395.0225700030598ZM540.9695391328739 395.0225700030598L543.7632288250168 375.8784437969026Q543.9690796444379 373.73171382294026 544.7630756622048 371.2026894700532Q545.5276644200544 368.64425785724876 546.3510676977385 366.5857496630383L546.3510676977385 366.5857496630383L548.203725072528 361.615922737016L561.8486936741515 361.615922737016L561.8486936741515 395.0225700030598L595.137711900526 395.0225700030598L595.137711900526 400.4040985679242Q595.137711900526 402.78608662122485 594.726010261684 404.1682278373376Q594.314308622842 405.5503690534503 593.432090825323 406.28555055138264Q592.5498730278043 407.0207320493149 591.1677318116915 407.226582868736Q589.7855905955789 407.432433688157 587.8153041811204 407.432433688157L587.8153041811204 407.432433688157L561.8486936741515 407.432433688157L561.8486936741515 468.746570615711Q561.8486936741515 474.9220951983424 562.9367622910913 479.2743696661016Q564.0248309080312 483.62664413386085 565.9363028026551 486.3027047863344Q567.847774697279 489.0081726987253 570.6414643894218 490.18446309541696Q573.4351540815644 491.36075349210864 576.8463962319704 491.36075349210864L576.8463962319704 491.36075349210864Q577.9932793687449 491.36075349210864 579.4930496245267 491.1254954127703Q580.9928198803086 490.86083007351465 582.3161465765868 490.4491284346726L582.3161465765868 490.4491284346726Q583.8747313522033 490.03742679583047 585.4333161278198 489.50809611731927L585.4333161278198 489.50809611731927Q585.8450177666618 486.0968539669134 586.2567194055039 482.6856118165075L586.2567194055039 482.6856118165075Q586.6684210443459 479.68607130494365 587.0213081633533 476.27482915453777Q587.4036025422781 472.8635870041319 587.8153041811204 469.77582471281625L587.8153041811204 469.77582471281625L601.3426437430746 468.746570615711L602.3718978401798 496.74228205697307Q595.9905224381275 499.94767338795793 587.7564896612857 501.3886291239053Q579.5518641443614 502.8589921197698 570.4356135700007 502.8589921197698L570.4356135700007 502.8589921197698Q555.2320601927606 502.8589921197698 547.5273580944302 494.9484392020183Q539.8520632560169 487.03788628426673 539.8520632560169 470.8050788099215L539.8520632560169 470.8050788099215L539.8520632560169 407.432433688157L518.8552796750705 407.432433688157L518.8552796750705 401.8450543038715Q518.8552796750705 399.13958639148063 520.031570071762 398.3161831137965Q521.2372677283711 397.49277983611233 523.7074775614235 397.1987072369394L523.7074775614235 397.1987072369394L540.9695391328739 395.0225700030598Z " fill="#d50050" transform="matrix(0.5224418715391628,0,0,0.5224418715391627,-4.88004712520918,76.31653506045353)"/><path d="M730.8244769248206 375.7580438427551L730.1815040394367 375.7580438427551L711.8671473364011 429.20775757290534L748.7654945331171 429.20775757290534L730.8244769248206 375.7580438427551ZM741.9209444629 363.9356391760165L774.0695887321017 448.66287262097705Q775.2310881379567 451.7325496221653 776.2888822397175 453.88961994732466Q777.3466763414783 456.046690272484 778.4459525648768 457.7059751379912L778.4459525648768 457.7059751379912Q780.1259784912029 458.1415374151868 781.8474865391665 458.2659837800999Q783.5482535263114 458.3696890841941 785.4564311216448 458.3696890841941L785.4564311216448 458.3696890841941L788.650554487746 458.3696890841941L790.7661426912678 468.57429100706327Q785.8919933988403 467.8483538784038 781.536370626884 467.70316645267195Q777.2014889157465 467.5579790269401 773.1154999344351 467.5579790269401L773.1154999344351 467.5579790269401Q770.1287871765221 467.5579790269401 767.3909671484353 467.5994611485778Q764.6738881811673 467.6409432702154 762.0397734571745 467.7446485743096Q759.4056587331819 467.8483538784038 756.7922850700081 468.0350234257734Q754.1581703460155 468.221692973143 751.3996092571098 468.57429100706327L751.3996092571098 468.57429100706327L750.0099581822475 458.3696890841941L751.2544218313778 458.3696890841941Q753.3700100348996 458.3696890841941 755.1952233869574 458.30746590173754Q756.9996956781965 458.22450165846215 758.4723109963342 457.7059751379912L758.4723109963342 457.7059751379912Q758.3893467530588 456.046690272484 757.9123023542254 453.848137825687Q757.455999016211 451.6703264397088 756.3567227928124 448.8910242899843L756.3567227928124 448.8910242899843L751.5447966828417 436.7160215893253L709.4611842814156 436.7160215893253L705.5203827258362 448.66287262097705Q704.6492581714449 451.2969873449697 704.2551780158869 453.2259060011218Q703.861097860329 455.1548246572739 703.861097860329 456.8348505835999L703.861097860329 456.8348505835999Q703.861097860329 457.4156002865274 704.358883319981 457.7059751379912Q704.8774098404522 457.9963499894549 705.6448290907492 458.1415374151868Q706.4122483410463 458.30746590173754 707.3248550170752 458.32820696255635Q708.2374616931041 458.3696890841941 709.1085862474954 458.3696890841941L709.1085862474954 458.3696890841941L712.4478970393286 458.3696890841941L711.8049241539445 468.57429100706327Q707.7189351726331 467.8483538784038 703.8818389211478 467.70316645267195Q700.0654837304812 467.5579790269401 696.33209278309 467.5579790269401L696.33209278309 467.5579790269401Q690.7942295444599 467.5579790269401 685.9200802520324 467.70316645267195Q681.0251898987863 467.8483538784038 675.4873266601561 468.57429100706327L675.4873266601561 468.57429100706327L677.6651380461343 458.3696890841941L681.0251898987863 458.3696890841941Q682.9955906765761 458.3696890841941 684.7170987245398 458.30746590173754Q686.4178657116847 458.22450165846215 688.0356684555542 457.7059751379912L688.0356684555542 457.7059751379912Q689.2593910438657 456.046690272484 690.3586672672643 453.848137825687Q691.4579434906627 451.6703264397088 692.4742554707859 448.8910242899843L692.4742554707859 448.8910242899843Q693.3453800251772 446.48506123499885 695.2535576205105 441.52794769929613Q697.1409941550248 436.5708341635934 699.6921446357421 430.03740000565887Q702.2432951164594 423.5247069085432 705.2092668135535 415.99570183130436Q708.1544974498288 408.48743781488434 711.1412102077418 400.97917379846433L711.1412102077418 400.97917379846433L726.3029256663136 362.7741397701614L733.0230293716177 362.7741397701614Q736.3001169809944 362.7741397701614 738.2290356371465 363.0645146216252Q740.1579542932986 363.354889473089 741.9209444629 363.9356391760165L741.9209444629 363.9356391760165ZM824.5325897043389 392.3094103761893L824.5325897043389 409.87708888974663Q827.2289276107881 405.58368930024676 829.8630423347807 401.933262596131Q832.4764159979545 398.28283589201516 835.5046108775052 395.6694622288414Q838.5328057570557 393.0353475048487 842.1832324611715 391.5834732475299Q845.8336591652874 390.1108579293923 850.5626210319829 390.1108579293923L850.5626210319829 390.1108579293923Q855.08417229049 390.1108579293923 857.4071711022 390.85753611887054Q859.7509109747289 391.5834732475299 860.9953746238592 392.3094103761893L860.9953746238592 392.3094103761893L859.1701612718014 412.4282393704639L852.5952449922291 412.4282393704639L850.8529958834466 401.7880751703991Q848.8825951056568 401.55992350139184 847.7833188822583 401.41473607565996Q846.7047837196786 401.2695486499281 845.8958823477439 401.2695486499281L845.8958823477439 401.2695486499281Q842.4736073126353 401.2695486499281 838.7816984868819 403.3436547318121Q835.1105307219472 405.4385018745149 832.0408537207588 408.90225903126117Q828.9711767195706 412.3660161880074 827.0007759417808 416.84608532487675Q825.0511162248099 421.32615446174617 825.0511162248099 426.138080571717L825.0511162248099 426.138080571717L825.0511162248099 450.7162376420422Q825.0511162248099 453.78591464323046 825.1963036505417 455.77705648183905Q825.3414910762737 457.7889393812666 826.1711335090272 459.09562621285346Q827.0007759417808 460.40231304444035 828.8052482330199 461.1489912339186Q830.5889794634402 461.874928362578 833.8660670728168 462.37271382223014L833.8660670728168 462.37271382223014L834.5297810190197 468.51206782460673Q829.2615515710344 468.0765055474111 824.9681519815344 467.80687175676616Q820.6747523920346 467.5579790269401 816.5057991674479 467.5579790269401L816.5057991674479 467.5579790269401Q812.5649976118683 467.5579790269401 808.60345499547 467.78613069594735Q804.6211713182527 467.9935413041357 800.1825843030209 468.51206782460673L800.1825843030209 468.51206782460673L800.4729591544847 462.37271382223014Q803.8952341895933 461.9371515450345 805.7619296632888 461.356401842107Q807.6078840761656 460.77565213917944 808.458267569738 459.67637591578097Q809.2879100024917 458.5978407532013 809.4330974282235 456.91781482687526Q809.5782848539554 455.2377889005493 809.5782848539554 452.6036741765566L809.5782848539554 452.6036741765566L809.5782848539554 405.4385018745149Q809.5782848539554 404.11107398210913 809.4745795498611 402.8458692721599Q809.370874245767 401.55992350139184 808.9975351510279 400.3984240955368L808.9975351510279 400.3984240955368Q807.9812231709047 399.8798975750658 806.8197237650497 399.58952272360204Q805.6374832983759 399.2991478721383 803.9781984328687 399.2991478721383L803.9781984328687 399.2991478721383L795.7232562269704 399.2991478721383L795.7232562269704 392.3094103761893Q796.5943807813617 392.0812587071821 798.3573709509631 391.832365977356Q800.0996200597456 391.5834732475299 802.4018778106368 391.35532157852265Q804.704135561528 391.1479109703343 807.3589913463395 391.0027235446024Q810.013847131151 390.85753611887054 812.7931492808756 390.85753611887054L812.7931492808756 390.85753611887054Q816.2983885592595 390.85753611887054 819.3888066212667 391.1686520311531Q822.4999657440926 391.5005090042545 824.5325897043389 392.3094103761893L824.5325897043389 392.3094103761893ZM881.6949533210613 392.3094103761893L883.6653540988511 378.8069797831246Q883.810541524583 377.2928823433493 884.3705501666917 375.5091511129291Q884.9098177479816 373.70467882169 885.4905674509091 372.2528045643712L885.4905674509091 372.2528045643712L886.7972542824959 368.7475652859873L896.4211065024376 368.7475652859873L896.4211065024376 392.3094103761893L919.8999873493642 392.3094103761893L919.8999873493642 396.105024506037Q919.8999873493642 397.785050432363 919.6096124979006 398.75988029084846Q919.3192376464367 399.734710149334 918.6970058218716 400.25323666980495Q918.0747739973064 400.7717631902759 917.0999441388209 400.9169506160078Q916.1251142803354 401.0621380417397 914.7354632054731 401.0621380417397L914.7354632054731 401.0621380417397L896.4211065024376 401.0621380417397L896.4211065024376 444.30724984902065Q896.4211065024376 448.66287262097705 897.1885257527347 451.7325496221653Q897.9559450030317 454.8022266233536 899.3041139562564 456.68966315786804Q900.652282909481 458.5978407532013 902.6226836872708 459.4274831859549Q904.5930844650604 460.25712561870847 906.9990475200459 460.25712561870847L906.9990475200459 460.25712561870847Q907.8079488919807 460.25712561870847 908.8657429937415 460.09119713215773Q909.9235370955023 459.9045275847882 910.8568848323501 459.61415273332443L910.8568848323501 459.61415273332443Q911.9561610557487 459.3237778818607 913.0554372791471 458.9504387871216L913.0554372791471 458.9504387871216Q913.345812130611 456.54447573213616 913.6361869820746 454.13851267715074L913.6361869820746 454.13851267715074Q913.9265618335385 452.0229244736291 914.1754545633645 449.61696141864365Q914.4450883540094 447.21099836365823 914.7354632054731 445.0331869776801L914.7354632054731 445.0331869776801L924.2763511821395 444.30724984902065L925.0022883107988 464.0527397485562Q920.5014781131106 466.3135153778097 914.6939810838355 467.32982735793286Q908.9072251153792 468.36688039887486 902.4774962615388 468.36688039887486L902.4774962615388 468.36688039887486Q891.7543678181987 468.36688039887486 886.3202098836626 462.78753503860696Q880.9067930099454 457.208189678339 880.9067930099454 445.75912410633947L880.9067930099454 445.75912410633947L880.9067930099454 401.0621380417397L866.0976755852939 401.0621380417397L866.0976755852939 397.12133648616015Q866.0976755852939 395.2131588908269 866.9273180180475 394.6324091878994Q867.7777015116199 394.0516594849719 869.5199506204024 393.84424887678347L869.5199506204024 393.84424887678347L881.6949533210613 392.3094103761893ZM1032.046903196831 451.8777370478972L1057.4961848215476 381.4410945071172Q1058.5332378624894 378.59956917493616 1058.8858358964098 376.48398097141455Q1059.259174991149 374.3683927678929 1059.3213981736053 372.68836684156685L1059.3213981736053 372.68836684156685Q1057.8695239162867 372.10761713863934 1056.0443105642287 372.00391183454514Q1054.2190972121707 371.8794654696321 1052.0412858261927 371.8794654696321L1052.0412858261927 371.8794654696321L1046.9389848647581 371.8794654696321L1047.2915828986784 363.87341599355995Q1051.7509109747289 363.29266629063244 1056.521354963062 363.0230324999875Q1061.291798951395 362.7741397701614 1066.9748496157572 362.7741397701614L1066.9748496157572 362.7741397701614Q1072.8860519491266 362.7741397701614 1077.8016833631916 362.9193271958933Q1082.7380558380755 363.0645146216252 1086.305518298916 363.87341599355995L1086.305518298916 363.87341599355995L1084.5632691901333 371.8794654696321L1080.7676550602857 371.8794654696321Q1078.6520668567641 371.8794654696321 1076.743889261431 372.00391183454514Q1074.8564527269164 372.10761713863934 1073.0312393748586 372.68836684156685L1073.0312393748586 372.68836684156685Q1072.0149273947354 374.3683927678929 1071.04009753625 376.48398097141455Q1070.0445266169456 378.59956917493616 1069.0282146368224 381.4410945071172L1069.0282146368224 381.4410945071172Q1065.232600506975 391.79088385571833 1061.1466115256633 402.80438715052225Q1057.0606225443519 413.81789044532616 1052.8709282589462 424.8936169225866Q1048.6812339735407 435.9900844606659 1044.4500575664972 446.8169182081003Q1040.218881159454 457.64375195553464 1036.1328921781426 467.5579790269401L1036.1328921781426 467.5579790269401L1028.562404979266 467.5579790269401Q1025.2645763090704 467.5579790269401 1023.1697291663677 466.97722932401257Q1021.0541409628461 466.39647962108506 1020.1622753476358 464.19792717428805L1020.1622753476358 464.19792717428805L987.0595422807676 381.4410945071172Q985.8980428749126 378.59956917493616 984.6535792257821 376.48398097141455Q983.4091155766519 374.3683927678929 982.1853929883403 372.68836684156685L982.1853929883403 372.68836684156685Q980.2772153930068 372.10761713863934 978.3897788584925 372.00391183454514Q976.5023423239782 371.8794654696321 974.3867541204565 371.8794654696321L974.3867541204565 371.8794654696321L968.9111140642827 371.8794654696321L967.2310881379567 363.87341599355995Q971.6696751531885 363.29266629063244 976.7512350538042 363.0230324999875Q981.8120538936012 362.7741397701614 988.2417827474414 362.7741397701614L988.2417827474414 362.7741397701614Q995.5218950948542 362.7741397701614 1001.7856954621438 362.9193271958933Q1008.0702368902523 363.0645146216252 1012.9443861826796 363.87341599355995L1012.9443861826796 363.87341599355995L1013.8984749803462 371.8794654696321L1008.6509865931798 371.8794654696321Q1006.5353983896582 371.8794654696321 1004.7101850376002 372.00391183454514Q1002.8849716855423 372.10761713863934 1001.4330974282236 372.68836684156685L1001.4330974282236 372.68836684156685Q1001.4330974282236 374.3683927678929 1002.2627398609771 376.48398097141455Q1003.1131233545495 378.59956917493616 1004.1916585171292 381.4410945071172L1004.1916585171292 381.4410945071172L1031.3209660681719 451.8777370478972L1032.046903196831 451.8777370478972ZM1130.9402811810592 452.6036741765566L1130.9402811810592 452.6036741765566Q1131.3758434582548 448.66287262097705 1131.728441492175 443.6850180244555Q1132.1017805869142 438.6864223671151 1132.1017805869142 431.9040954793545L1132.1017805869142 431.9040954793545L1120.5697507716393 431.9040954793545Q1110.1577382405817 431.9040954793545 1104.5991339411325 435.7619327916587Q1099.0612707025025 439.64051116478174 1099.0612707025025 447.1487751812017L1099.0612707025025 447.1487751812017Q1099.0612707025025 453.7029503999551 1102.7116974066182 456.9385558876941Q1106.362124110734 460.19490243625194 1112.4807370522917 460.19490243625194L1112.4807370522917 460.19490243625194Q1117.0852525540743 460.19490243625194 1121.8142144207698 458.0378321110926Q1126.5639173482841 455.88076178593326 1130.9402811810592 452.6036741765566ZM1160.4548107262683 460.19490243625194L1160.4548107262683 466.1683279520778Q1156.742160839696 467.47501478366473 1152.075422155457 467.9935413041357Q1147.408683471218 468.51206782460673 1141.7256328068559 468.51206782460673L1141.7256328068559 468.51206782460673Q1138.7389200489429 468.51206782460673 1136.664813967059 468.36688039887486Q1134.5699668243562 468.221692973143 1133.304762114407 467.45427372284587Q1132.018816343639 466.6868544725488 1131.4380666407114 465.0690517286793Q1130.857316937784 463.4719900456287 1130.857316937784 460.63046471344757L1130.857316937784 460.63046471344757L1130.712129512052 459.1785904561288Q1128.5343181260737 461.1489912339186 1126.045390827813 462.9742045859765Q1123.5772045903711 464.77867687721556 1120.6527150149147 466.2098100737155Q1117.7282254394581 467.6409432702154 1114.3889146476251 468.47058570296906Q1111.028862794973 469.30022813572265 1107.0880612393935 469.30022813572265L1107.0880612393935 469.30022813572265Q1101.9027960346834 469.30022813572265 1097.5264322019084 467.95205918249803Q1093.170809429952 466.6038902292735 1090.0181681854883 463.9075523228243Q1086.8862680018435 461.2112144163751 1085.144018893061 457.208189678339Q1083.3810287234596 453.18442387948414 1083.3810287234596 447.7917480665858L1083.3810287234596 447.7917480665858Q1083.3810287234596 435.69970960920216 1092.797470335213 429.64331985010097Q1102.1931708861473 423.5869300909997 1121.378652143574 423.5869300909997L1121.378652143574 423.5869300909997L1132.1017805869142 423.5869300909997L1132.1017805869142 418.629816555297Q1132.1017805869142 413.1541764991233 1131.3758434582548 409.2548570651814Q1130.6499063295955 405.35553763123954 1128.9906214640882 402.8458692721599Q1127.3520776594 400.3362009130803 1124.655739752951 399.1332193855876Q1121.9594018465016 397.93023785809487 1118.1015645341975 397.93023785809487L1118.1015645341975 397.93023785809487Q1113.7252007014222 397.93023785809487 1110.261443544676 399.1539604464065Q1106.7976863879296 400.3984240955368 1104.1013484814805 402.4103069949643Q1101.4050105750314 404.4014488335729 1099.3309044931475 407.0355635575656Q1097.2360573504445 409.6696782815582 1095.5767724849375 412.51120361373927L1095.5767724849375 412.51120361373927L1085.4343937445246 406.0814747598989Q1085.932179204177 403.094762001986 1088.3381422591624 400.25323666980495Q1090.7441053141479 397.4117113376239 1094.8300942954593 395.15093570837035Q1098.9160832767707 392.8901600791168 1104.578392880314 391.54199112589225Q1110.2199614230383 390.19382217266764 1117.230439979806 390.19382217266764L1117.230439979806 390.19382217266764Q1132.8277177155737 390.19382217266764 1140.1907943062618 397.3080060335297Q1147.5538708969498 404.4014488335729 1147.5538708969498 417.8209151833623L1147.5538708969498 417.8209151833623L1147.5538708969498 447.9369354923176Q1147.5538708969498 452.1058887169045 1147.927209991689 455.0511193531797Q1148.2798080256093 457.9963499894549 1148.7983345460802 460.19490243625194L1148.7983345460802 460.19490243625194L1160.4548107262683 460.19490243625194ZM1250.9480590788662 413.2993639248552L1250.9480590788662 447.9369354923176Q1250.9480590788662 452.1058887169045 1251.3213981736053 455.0511193531797Q1251.6739962075258 457.9963499894549 1252.1925227279967 460.19490243625194L1252.1925227279967 460.19490243625194L1262.6874995023297 460.19490243625194L1263.4964008742645 466.6868544725488Q1256.1333242835763 468.51206782460673 1244.0205447653739 468.51206782460673L1244.0205447653739 468.51206782460673Q1242.5064473255984 468.51206782460673 1240.888644581729 468.2424340339618Q1239.2915828986784 467.9935413041357 1237.9848960670915 467.2676041754763Q1236.6574681746856 466.54166704681694 1235.8278257419322 465.33868551932426Q1234.9774422483597 464.1357039918315 1234.9774422483597 462.1653032140417L1234.9774422483597 462.1653032140417Q1234.9774422483597 458.5978407532013 1235.205593917367 454.8437087449913Q1235.4130045255552 451.0688356759624 1235.4130045255552 446.48506123499885L1235.4130045255552 446.48506123499885L1235.4130045255552 420.08169081261576Q1235.4130045255552 414.3364169657972 1234.4381746670697 410.35413328857993Q1233.4633448085842 406.3718496113627 1231.7418367606206 403.9036633739207Q1230.020328712657 401.41473607565996 1227.7388120225846 400.35694197389915Q1225.4365542716932 399.2991478721383 1222.8024395477005 399.2991478721383L1222.8024395477005 399.2991478721383Q1219.8986910330632 399.2991478721383 1216.7253087277807 400.35694197389915Q1213.5519264224981 401.41473607565996 1210.5652136645854 403.17772624526134Q1207.5785009066724 404.9199753540439 1204.9443861826796 407.13926886165973Q1202.310271458687 409.37930343009447 1200.505799167448 411.70230224180455L1200.505799167448 411.70230224180455L1200.505799167448 450.28067536484656Q1200.505799167448 453.4747987309479 1200.6509865931798 455.5696458736507Q1200.7961740189116 457.64375195553464 1201.6258164516653 458.9504387871216Q1202.455458884419 460.25712561870847 1204.2184490540203 461.0245448690056Q1205.9606981628026 461.79196411930263 1209.2377857721794 462.3104906397736L1209.2377857721794 462.3104906397736L1209.8392765359258 468.51206782460673Q1205.670323311339 468.0765055474111 1201.0450667487376 467.80687175676616Q1196.4198101861366 467.5579790269401 1191.6078840761656 467.5579790269401L1191.6078840761656 467.5579790269401Q1187.2315202433904 467.5579790269401 1183.145531262079 467.78613069594735Q1179.0595422807676 467.9935413041357 1175.5543030023837 468.51206782460673L1175.5543030023837 468.51206782460673L1175.782454671391 462.3104906397736Q1179.2047297064996 461.874928362578 1181.071425180195 461.29417865965047Q1182.917379593072 460.71342895672296 1183.7677630866442 459.61415273332443Q1184.5974055193979 458.51487650992595 1184.7425929451297 456.8348505835999Q1184.8877803708615 455.1548246572739 1184.8877803708615 452.54145099410005L1184.8877803708615 452.54145099410005L1184.8877803708615 405.93628733416705Q1184.8877803708615 404.4844130768483 1184.7840750667674 403.0532798803483Q1184.6803697626733 401.64288774466723 1184.3899949112094 400.3984240955368L1184.3899949112094 400.3984240955368Q1183.3529418702674 399.8176743926093 1182.1499603427746 399.56878166278324Q1180.946978815282 399.2991478721383 1179.266952888956 399.2991478721383L1179.266952888956 399.2991478721383L1171.0327517438766 399.2991478721383L1171.0327517438766 392.3094103761893Q1171.9038762982677 392.0812587071821 1173.7290896503257 391.832365977356Q1175.5543030023837 391.5834732475299 1177.8980428749126 391.35532157852265Q1180.2210416866226 391.1479109703343 1182.9588617147094 391.0027235446024Q1185.6966817427963 390.85753611887054 1188.455242831702 390.85753611887054L1188.455242831702 390.85753611887054Q1191.9604821100859 390.85753611887054 1195.0716412329118 391.1686520311531Q1198.162059294919 391.5005090042545 1200.132460072709 392.3094103761893L1200.132460072709 392.3094103761893L1200.132460072709 401.49770031893536Q1202.9117622224335 398.8013624124862 1206.209590892629 396.6857742089645Q1209.5281606236433 394.57018600544285 1213.1371052061213 393.11831174812403Q1216.7460497885995 391.6456964299864 1220.4794407359905 390.87827717968935Q1224.192090622563 390.1108579293923 1227.7595530834033 390.1108579293923L1227.7595530834033 390.1108579293923Q1232.364068585186 390.1108579293923 1236.5537628705915 391.43828582179805Q1240.743457155997 392.74497265338493 1243.9583215829173 395.5450158639283Q1247.1731860098375 398.36580013529056 1249.0606225443519 402.7629050288846Q1250.9480590788662 407.18075098329746 1250.9480590788662 413.2993639248552L1250.9480590788662 413.2993639248552ZM1333.4974811378486 442.39907225368745L1333.4974811378486 442.39907225368745Q1333.4974811378486 432.484845182282 1333.3108115904793 423.6698943342751Q1333.1241420431095 414.83420242544935 1332.6263565834574 406.454813854638L1332.6263565834574 406.454813854638Q1330.9463306571313 404.62960050258016 1328.6025907846024 403.17772624526134Q1326.2795919728924 401.7051109271237 1323.7284414921753 400.6473168253629Q1321.177291011458 399.58952272360204 1318.5224352266462 399.05025514231227Q1315.8468383810161 398.5109875610224 1313.4408753260307 398.5109875610224L1313.4408753260307 398.5109875610224Q1307.7578246616686 398.5109875610224 1303.8170231060888 400.7717631902759Q1299.8762215505094 403.03253881952946 1297.3665531914298 407.18075098329746Q1294.85688483235 411.3289631470654 1293.716126487314 417.17794229797823Q1292.5961092030966 423.0061803880722 1292.5961092030966 430.0788821272966L1292.5961092030966 430.0788821272966Q1292.5961092030966 445.53097243733225 1297.739892286169 452.8733079672015Q1302.8629343084224 460.19490243625194 1313.0882772921104 460.19490243625194L1313.0882772921104 460.19490243625194Q1316.6557397529507 460.19490243625194 1319.8913452406898 458.99192090875925Q1323.1476917892476 457.7889393812666 1325.8025475740592 455.4866816303753Q1328.4574033588706 453.18442387948414 1330.4278041366604 449.86585414846974Q1332.3982049144504 446.5472844174554 1333.4974811378486 442.39907225368745ZM1348.8043840221524 359.206677309321L1348.8043840221524 447.9369354923176Q1348.8043840221524 452.1058887169045 1349.1777231168917 455.0511193531797Q1349.530321150812 457.9963499894549 1350.0488476712828 460.19490243625194L1350.0488476712828 460.19490243625194L1362.6594126491375 460.19490243625194L1362.6594126491375 466.4587028035416Q1358.9467627625652 467.4127916012082 1354.2385419566886 467.9313181216792Q1349.530321150812 468.42910358133133 1343.8472704864498 468.42910358133133L1343.8472704864498 468.42910358133133Q1341.2961200057323 468.42910358133133 1339.4086834712182 468.3253982772371Q1337.5005058758848 468.221692973143 1336.2767832875732 467.5579790269401Q1335.032319638443 466.8942650807372 1334.4100878138777 465.4838729450561Q1333.7878559893124 464.0527397485562 1333.7878559893124 461.43936608538235L1333.7878559893124 461.43936608538235L1333.7878559893124 457.9341268069984Q1331.3818929343272 461.0038038081867 1328.4366622980517 463.1401330725272Q1325.4706906009576 465.29720339768653 1322.193602991581 466.6868544725488Q1318.9165153822044 468.0765055474111 1315.3697939821827 468.6779963111575Q1311.84381364298 469.30022813572265 1308.2763511821395 469.30022813572265L1308.2763511821395 469.30022813572265Q1301.5562474768356 469.30022813572265 1295.6865272651037 466.8942650807372Q1289.8168070533723 464.4883020257518 1285.3989610989593 459.67637591578097Q1281.0018562053651 454.8644498058101 1278.4507057246478 447.64656064085386Q1275.8995552439305 440.42867147589766 1275.8995552439305 430.8877834992313L1275.8995552439305 430.8877834992313Q1275.8995552439305 421.0357796102824 1278.1603308731842 413.34084604649286Q1280.4211065024379 405.6459124827033 1284.6730239703 400.35694197389915Q1288.945682498981 395.067971465095 1295.1057775621762 392.350892497827Q1301.2658726253715 389.61307246974013 1309.0645114932556 389.61307246974013L1309.0645114932556 389.61307246974013Q1316.5727755096752 389.61307246974013 1322.5254599646826 392.0605176463632Q1328.4574033588706 394.4872217621675 1333.2693294688413 399.2991478721383L1333.2693294688413 399.2991478721383L1333.2693294688413 368.83052952926266Q1333.2693294688413 365.03491539941496 1332.7715440091893 362.4837649186977L1332.7715440091893 362.4837649186977Q1331.3818929343272 362.04820264150203 1329.8885365553706 361.7578277900383Q1328.3951801764142 361.4674529385745 1326.4247793986242 361.4674529385745L1326.4247793986242 361.4674529385745L1319.3520776594 361.4674529385745L1319.3520776594 355.1206883280096Q1323.0647275459723 354.24956377361826 1329.4944563998126 353.6895551315096Q1335.9034441928343 353.1502875502198 1344.075422155457 353.1502875502198L1344.075422155457 353.1502875502198Q1345.3198858045873 353.1502875502198 1346.3776799063482 353.19176967185746Q1347.41473294729 353.21251073267626 1348.223634319225 353.378439219227L1348.223634319225 353.378439219227Q1348.596973413964 354.60216180753855 1348.7006787180583 356.0747771256762Q1348.8043840221524 357.52665138299494 1348.8043840221524 359.206677309321L1348.8043840221524 359.206677309321ZM1389.2701936797089 423.5247069085432L1427.3507813430988 423.5247069085432Q1427.4959687688306 423.2135909962606 1427.4959687688306 422.92321614479687Q1427.4959687688306 422.6328412933331 1427.4959687688306 422.2802432594128L1427.4959687688306 422.2802432594128Q1427.4959687688306 417.468317149442 1426.5003978495263 413.13343543830445Q1425.5255679910408 408.7778126663481 1423.4099797875194 405.45924293533375Q1421.2943915839976 402.14067320431934 1417.8928576097078 400.2117545481673Q1414.512064696237 398.28283589201516 1409.6171743429907 398.28283589201516L1409.6171743429907 398.28283589201516Q1399.9310989405926 398.28283589201516 1394.9325032832521 404.7125647458555Q1389.9339076259118 411.121552538877 1389.2701936797089 423.5247069085432L1389.2701936797089 423.5247069085432ZM1435.2946076367145 452.6036741765566L1441.5584080040041 455.3829763262811Q1437.410195840236 462.6630886736939 1430.1093424320045 465.98165840470824Q1422.8292300845917 469.30022813572265 1412.3964764927152 469.30022813572265L1412.3964764927152 469.30022813572265Q1403.5815256447083 469.30022813572265 1396.384377540571 466.6868544725488Q1389.2079704972523 464.0527397485562 1384.1471516574554 458.99192090875925Q1379.06559175684 453.93110206896233 1376.307030667934 446.5472844174554Q1373.5277285182094 439.18420782676725 1373.5277285182094 429.70554303255744L1373.5277285182094 429.70554303255744Q1373.5277285182094 420.51725308981145 1376.2240664246588 413.195658620761Q1378.9204043311076 405.8740641517105 1383.9604821100859 400.7717631902759Q1388.9798188282452 395.6694622288414 1396.0940026891074 392.9316422007545Q1403.2081865499692 390.19382217266764 1412.1061016412516 390.19382217266764L1412.1061016412516 390.19382217266764Q1418.6602768600048 390.19382217266764 1424.3433275243672 392.2057050720951Q1430.0471192495481 394.19684691070375 1434.2368135349536 397.95097891891373Q1438.4265078203591 401.7051109271237 1440.790988753707 407.18075098329746Q1443.1762107478737 412.65639103947115 1443.1762107478737 419.50094110968826L1443.1762107478737 419.50094110968826Q1443.1762107478737 423.6698943342751 1442.4710146800332 426.138080571717Q1441.7865596730114 428.6270078699778 1440.4383907197869 429.9336947015647Q1439.090221766562 431.2403815331516 1436.9953746238593 431.65520274952837Q1434.9212685419755 432.04928290508633 1432.0797432097943 432.04928290508633L1432.0797432097943 432.04928290508633L1389.3531579229843 432.04928290508633Q1390.1620592949191 446.11172214025976 1396.8199398177665 453.1636828186653Q1403.4985614014329 460.19490243625194 1414.8024395477007 460.19490243625194L1414.8024395477007 460.19490243625194Q1420.71364188107 460.19490243625194 1425.8159428425045 458.3696890841941Q1430.9182438039393 456.54447573213616 1435.2946076367145 452.6036741765566L1435.2946076367145 452.6036741765566ZM1466.6550915948003 447.06581093792636L1466.6550915948003 369.9298057526612Q1466.6550915948003 368.0216281573279 1466.5099041690685 366.1341916228135Q1466.3439756825176 364.22601402748023 1465.9913776485973 362.4837649186977L1465.9913776485973 362.4837649186977Q1464.7469139994669 362.04820264150203 1463.191334438054 361.7578277900383Q1461.615013815822 361.4674529385745 1459.6446130380325 361.4674529385745L1459.6446130380325 361.4674529385745L1452.6548755420833 361.4674529385745L1452.6548755420833 355.1206883280096Q1455.9941863339166 354.39475119935014 1461.5735316941843 353.77251937478496Q1467.1528770544523 353.1502875502198 1474.2255787936767 353.1502875502198L1474.2255787936767 353.1502875502198Q1477.7308180720609 353.1502875502198 1479.4108439983868 353.5236266449589Q1481.0908699247127 353.87622467887917 1482.0242176615604 355.0377240847342L1482.0242176615604 355.0377240847342L1482.0242176615604 447.9369354923176Q1482.0242176615604 452.1058887169045 1482.3975567562995 455.0511193531797Q1482.75015479022 457.9963499894549 1483.268681310691 460.19490243625194L1483.268681310691 460.19490243625194L1495.2362734031615 460.19490243625194L1495.2362734031615 466.74907765500535Q1491.295471847582 467.70316645267195 1486.4005814943357 468.0972466082299Q1481.5264322019084 468.51206782460673 1475.3248550170754 468.51206782460673L1475.3248550170754 468.51206782460673Q1473.7277933340247 468.51206782460673 1472.0685084685174 468.2424340339618Q1470.429964663829 467.9935413041357 1469.1232778322421 467.309086297114Q1467.8165910006553 466.6038902292735 1466.9662075070828 465.40090870178074Q1466.1365650743294 464.19792717428805 1466.1365650743294 462.22752639649826L1466.1365650743294 462.22752639649826Q1466.1365650743294 458.66006393565783 1466.3854578041553 455.1548246572739Q1466.6550915948003 451.6703264397088 1466.6550915948003 447.06581093792636L1466.6550915948003 447.06581093792636ZM1552.1704853508766 452.6036741765566L1552.1704853508766 452.6036741765566Q1552.6060476280722 448.66287262097705 1552.9793867228116 443.6850180244555Q1553.3527258175507 438.6864223671151 1553.3527258175507 431.9040954793545L1553.3527258175507 431.9040954793545L1541.8206960022756 431.9040954793545Q1531.3879424103993 431.9040954793545 1525.850079171769 435.7619327916587Q1520.3122159331388 439.64051116478174 1520.3122159331388 447.1487751812017L1520.3122159331388 447.1487751812017Q1520.3122159331388 453.7029503999551 1523.9626426372545 456.9385558876941Q1527.6130693413704 460.19490243625194 1533.7316822829282 460.19490243625194L1533.7316822829282 460.19490243625194Q1538.3154567238919 460.19490243625194 1543.065159651406 458.0378321110926Q1547.7941215181015 455.88076178593326 1552.1704853508766 452.6036741765566ZM1581.7057559569046 460.19490243625194L1581.7057559569046 466.1683279520778Q1577.9931060703323 467.47501478366473 1573.3263673860934 467.9935413041357Q1568.6596287018544 468.51206782460673 1562.9765780374921 468.51206782460673L1562.9765780374921 468.51206782460673Q1559.9898652795794 468.51206782460673 1557.8950181368766 468.36688039887486Q1555.8209120549925 468.221692973143 1554.5557073450434 467.45427372284587Q1553.2697615742752 466.6868544725488 1552.689011871348 465.0690517286793Q1552.1082621684202 463.4719900456287 1552.1082621684202 460.63046471344757L1552.1082621684202 460.63046471344757L1551.9630747426884 459.1785904561288Q1549.7645222958913 461.1489912339186 1547.2963360584492 462.9742045859765Q1544.8074087601885 464.77867687721556 1541.903660245551 466.2098100737155Q1538.9791706700946 467.6409432702154 1535.6191188174423 468.47058570296906Q1532.2798080256093 469.30022813572265 1528.33900647003 469.30022813572265L1528.33900647003 469.30022813572265Q1523.15374126532 469.30022813572265 1518.7773774325447 467.95205918249803Q1514.4010135997694 466.6038902292735 1511.2691134161246 463.9075523228243Q1508.1372132324798 461.2112144163751 1506.3949641236973 457.208189678339Q1504.6319739540959 453.18442387948414 1504.6319739540959 447.7917480665858L1504.6319739540959 447.7917480665858Q1504.6319739540959 435.69970960920216 1514.0484155658492 429.64331985010097Q1523.4441161167836 423.5869300909997 1542.6295973742103 423.5869300909997L1542.6295973742103 423.5869300909997L1553.3527258175507 423.5869300909997L1553.3527258175507 418.629816555297Q1553.3527258175507 413.1541764991233 1552.6060476280722 409.2548570651814Q1551.880110499413 405.35553763123954 1550.2415666947247 402.8458692721599Q1548.603022890036 400.3362009130803 1545.9066849835872 399.1332193855876Q1543.2103470771378 397.93023785809487 1539.3525097648337 397.93023785809487L1539.3525097648337 397.93023785809487Q1534.9761459320584 397.93023785809487 1531.5123887753123 399.1539604464065Q1528.048631618566 400.3984240955368 1525.3522937121168 402.4103069949643Q1522.6559558056676 404.4014488335729 1520.561108662965 407.0355635575656Q1518.4870025810808 409.6696782815582 1516.8069766547549 412.51120361373927L1516.8069766547549 412.51120361373927L1506.6853389751611 406.0814747598989Q1507.1831244348132 403.094762001986 1509.5890874897984 400.25323666980495Q1511.995050544784 397.4117113376239 1516.0810395260953 395.15093570837035Q1520.1670285074067 392.8901600791168 1525.8085970501313 391.54199112589225Q1531.4709066536745 390.19382217266764 1538.4606441496237 390.19382217266764L1538.4606441496237 390.19382217266764Q1554.07866294621 390.19382217266764 1561.441739536898 397.3080060335297Q1568.8048161275863 404.4014488335729 1568.8048161275863 417.8209151833623L1568.8048161275863 417.8209151833623L1568.8048161275863 447.9369354923176Q1568.8048161275863 452.1058887169045 1569.1781552223254 455.0511193531797Q1569.5307532562458 457.9963499894549 1570.0492797767167 460.19490243625194L1570.0492797767167 460.19490243625194L1581.7057559569046 460.19490243625194ZM1639.6147977631051 455.09260147481734L1658.8625022029885 406.66222446282643Q1659.3602876626408 405.00293959731925 1659.878814183112 403.4266189750874Q1660.3973407035828 401.8502983528556 1660.749938737503 400.3984240955368L1660.749938737503 400.3984240955368Q1659.7336267573799 399.8176743926093 1658.3854578041553 399.56878166278324Q1657.0372888509307 399.2991478721383 1655.066888073141 399.2991478721383L1655.066888073141 399.2991478721383L1650.9808990918295 399.2991478721383L1651.8520236462207 392.3094103761893Q1654.6935489784019 391.5005090042545 1658.7795379597133 391.1686520311531Q1662.8655269410249 390.85753611887054 1668.1130153281913 390.85753611887054L1668.1130153281913 390.85753611887054Q1673.4434679586332 390.85753611887054 1677.6331622440387 391.1686520311531Q1681.8228565294442 391.5005090042545 1684.1665964019733 392.3094103761893L1684.1665964019733 392.3094103761893L1684.1665964019733 399.2991478721383L1680.2257948463937 399.2991478721383Q1678.1724298253284 399.2991478721383 1676.5753681422777 399.56878166278324Q1674.9783064592273 399.8176743926093 1673.5056911410895 400.3984240955368L1673.5056911410895 400.3984240955368Q1673.3605037153577 400.5436115212687 1673.1116109855316 400.97917379846433Q1672.8627182557054 401.41473607565996 1672.281968552778 402.70068184642804Q1671.6804777890318 403.96588655637726 1670.7056479305463 406.205921124812Q1669.7308180720609 408.4252146324278 1668.1130153281913 412.07564133654364L1668.1130153281913 412.07564133654364L1637.851807593504 481.8485699311207Q1635.0932465045983 488.1953345416857 1631.9820873817723 492.3228056446348Q1628.891669319765 496.4295356867651 1625.3449479197436 498.8354987417505Q1621.8189675805409 501.2414617967359 1617.6914964775917 502.19555059440256Q1613.5847664354612 503.14963939206916 1608.9180277512226 503.14963939206916L1608.9180277512226 503.14963939206916Q1606.9476269734325 503.14963939206916 1605.080931499737 502.9629698446996Q1603.2142360260416 502.77630029733007 1601.6793975254473 502.527407567504Q1600.165300085672 502.25777377685904 1599.107505983911 501.9051757429388Q1598.0497118821504 501.5318366481997 1597.6141496049547 501.09627437100403L1597.6141496049547 501.09627437100403L1599.2112112880054 490.9746366914102Q1601.9905134377298 491.9909486715334 1605.0394493780993 492.48873413118554Q1608.1091263792875 493.0072606516565 1610.2869377652657 493.0072606516565L1610.2869377652657 493.0072606516565Q1613.5847664354612 493.0072606516565 1616.0529526729033 492.3435467054536Q1618.541879971164 491.7005738200696 1620.8233966612363 489.3983160691784Q1623.1256544121277 487.0960583182872 1625.5316174671132 482.76117660714965Q1627.9375805220984 478.4262948960121 1631.1524449490187 470.98025406204863L1631.1524449490187 470.98025406204863L1603.940173154701 406.7451887061018Q1603.2142360260416 405.0651627797758 1602.4260757149257 403.50958321836276Q1601.6171743429907 401.933262596131 1600.5178981195925 400.48138833881217L1600.5178981195925 400.48138833881217Q1597.676372787411 399.3821121154137 1593.8807586575635 399.3821121154137L1593.8807586575635 399.3821121154137L1589.939957101984 399.3821121154137L1588.7162345136724 392.37163355864584Q1591.2673849943897 391.5834732475299 1595.7059720096215 391.2101341527908Q1600.165300085672 390.85753611887054 1605.9105739324907 390.85753611887054L1605.9105739324907 390.85753611887054Q1612.5477133945194 390.85753611887054 1618.0855766331495 391.2101341527908Q1623.6441809325986 391.5834732475299 1627.211643393439 392.37163355864584L1627.211643393439 392.37163355864584L1628.3109196168377 399.3821121154137L1624.2871538179827 399.3821121154137Q1622.3997172834684 399.3821121154137 1620.76117347878 399.6310048452398Q1619.1226296740915 399.8798975750658 1618.0855766331495 400.48138833881217L1618.0855766331495 400.48138833881217Q1618.168540876425 400.83398637273245 1619.1433707349104 403.38513685344975Q1620.1389416542147 405.93628733416705 1621.6737801548088 409.83560676810896Q1623.2086186554031 413.7349262020508 1625.1375373115552 418.5883344336593Q1627.0664559677073 423.44174266526784 1629.0368567454968 428.4818204442459L1629.0368567454968 428.4818204442459L1639.6147977631051 455.09260147481734Z " fill="#1a1a1d" transform="matrix(0.5224418715391628,0,0,0.5224418715391627,-4.88004712520918,76.31653506045353)"/></g></svg>
