<svg xmlns="http://www.w3.org/2000/svg" version="1.1" xmlns:xlink="http://www.w3.org/1999/xlink" xmlns:svgjs="http://svgjs.dev/svgjs" width="200px" height="70px" viewBox="0 0 1000 600"><rect width="1000" height="600" x="0" y="0" fill="#80a880"/><g><rect width="333.3333333333333" height="333.3333333333333" y="225.96929149545355" fill="#1d1b1b" transform="matrix(0.6135056689358277,0,0,0.6135056689358276,0,59.11559337751059)" x="203.7469940185547"/><path d="M273.43739944509616 467.6359573014304L273.43739944509616 467.6359573014304L241.14573287347807 467.6359573014304Q237.18161251477585 467.6359573014304 235.41656622367486 465.8709110103294Q233.65151993257385 464.1058647192284 233.65151993257385 460.14174436052616L233.65151993257385 460.14174436052616L233.65151993257385 325.13017068385045Q233.65151993257385 321.16605032514826 235.41656622367486 319.4010040340473Q237.18161251477585 317.63595774294623 241.14573287347807 317.63595774294623L241.14573287347807 317.63595774294623L304.8899456488138 317.63595774294623Q333.2174918617297 317.63595774294623 343.63415849773554 328.89174474685257Q354.05082513374134 340.1475317507589 354.05082513374134 358.26095762336905L354.05082513374134 358.26095762336905L354.05082513374134 384.939198285584Q354.05082513374134 403.05262415819413 343.63415849773554 414.30841116210047Q333.2174918617297 425.5641981660068 304.8899456488138 425.5641981660068L304.8899456488138 425.5641981660068L280.9316123860003 425.5641981660068L280.9316123860003 460.14174436052616Q280.9316123860003 464.1058647192284 279.1665660948994 465.8709110103294Q277.4015198037984 467.6359573014304 273.43739944509616 467.6359573014304ZM299.2765197394107 356.5827168875681L280.5265197946002 356.5827168875681L280.5265197946002 388.06419827638575L299.2765197394107 388.06419827638575Q305.3239734253141 388.06419827638575 307.1758252717151 384.939198285584Q309.0566123032161 381.8141982947823 309.0566123032161 377.85007793608L309.0566123032161 377.85007793608L309.0566123032161 366.7968372278738Q309.0566123032161 362.83271686917163 307.1758252717151 359.70771687836987Q305.3239734253141 356.5827168875681 299.2765197394107 356.5827168875681L299.2765197394107 356.5827168875681ZM438.4258248853887 355.1359576325673L422.8008249313799 355.1359576325673L422.8008249313799 381.8141982947823L438.4258248853887 381.8141982947823Q443.86563968419176 381.8141982947823 445.71749153059284 378.97855015498067Q447.5982785620938 376.17183720027907 447.5982785620938 372.00517054587675L447.5982785620938 372.00517054587675L447.5982785620938 364.9160501963728Q447.5982785620938 360.7493835419705 445.71749153059284 357.9426705872689Q443.86563968419176 355.1359576325673 438.4258248853887 355.1359576325673L438.4258248853887 355.1359576325673ZM415.30661199047574 467.6359573014304L415.30661199047574 467.6359573014304L383.2174917145577 467.6359573014304Q379.2823065409555 467.6359573014304 377.48832506475446 465.8709110103294Q375.72327877365353 464.1058647192284 375.72327877365353 460.14174436052616L375.72327877365353 460.14174436052616L375.72327877365353 325.13017068385045Q375.72327877365353 321.16605032514826 377.48832506475446 319.4010040340473Q379.2823065409555 317.63595774294623 383.2174917145577 317.63595774294623L383.2174917145577 317.63595774294623L452.6040655843966 317.63595774294623Q475.92582477500974 317.63595774294623 484.77999141561463 327.3292447514517Q493.6341580562196 337.02253175995713 493.6341580562196 352.4160502331658L493.6341580562196 352.4160502331658L493.6341580562196 362.02253168637117Q493.6341580562196 370.76095758657607 491.02999139721817 376.8952168277795Q488.42582473821665 383.05841125408296 481.9732784609131 385.74938346838445L481.9732784609131 385.74938346838445Q493.2290654648194 387.0225316127852 500.2024450739233 394.9218371450896Q507.17582468302726 402.85007786249406 507.17582468302726 415.9577167128014L507.17582468302726 415.9577167128014L507.17582468302726 460.14174436052616Q507.17582468302726 464.1058647192284 505.4107783919262 465.8709110103294Q503.6457321008253 467.6359573014304 499.681611742123 467.6359573014304L499.681611742123 467.6359573014304L467.3899451705049 467.6359573014304Q463.4258248118027 467.6359573014304 461.6607785207017 465.8709110103294Q459.8957322296007 464.1058647192284 459.8957322296007 460.14174436052616L459.8957322296007 460.14174436052616L459.8957322296007 428.2551703803083Q459.8957322296007 423.6834111345057 458.1306859384997 421.4843370669045Q456.3656396473988 419.31419818440327 451.96749151219626 419.31419818440327L451.96749151219626 419.31419818440327L422.8008249313799 419.31419818440327L422.8008249313799 460.14174436052616Q422.8008249313799 464.1058647192284 421.0357786402789 465.8709110103294Q419.27073234917793 467.6359573014304 415.30661199047574 467.6359573014304Z " fill="#80a880" transform="matrix(0.6135056689358277,0,0,0.6135056689358276,0,59.11559337751059)"/><path d="M716.6520913450446 467.6359573014304L627.9078786432949 467.6359573014304Q623.9437582845926 467.6359573014304 622.1787119934917 465.8709110103294Q620.4136657023907 464.1058647192284 620.4136657023907 460.14174436052616L620.4136657023907 460.14174436052616L620.4136657023907 435.3442907298123Q620.4136657023907 431.38017037111007 622.1787119934917 429.6151240800091Q623.9437582845926 427.85007778890804 627.9078786432949 427.85007778890804L627.9078786432949 427.85007778890804L648.5386656196065 427.85007778890804L648.5386656196065 357.85586503196885L627.9078786432949 357.85586503196885Q623.9437582845926 357.85586503196885 622.1787119934917 356.0618835557678Q620.4136657023907 354.2968372646668 620.4136657023907 350.3327169059646L620.4136657023907 350.3327169059646L620.4136657023907 325.13017068385045Q620.4136657023907 321.16605032514826 622.1787119934917 319.4010040340473Q623.9437582845926 317.63595774294623 627.9078786432949 317.63595774294623L627.9078786432949 317.63595774294623L716.6520913450446 317.63595774294623Q720.6162117037469 317.63595774294623 722.3812579948478 319.4010040340473Q724.1463042859489 321.16605032514826 724.1463042859489 325.13017068385045L724.1463042859489 325.13017068385045L724.1463042859489 350.3327169059646Q724.1463042859489 354.2968372646668 722.3812579948478 356.0618835557678Q720.6162117037469 357.85586503196885 716.6520913450446 357.85586503196885L716.6520913450446 357.85586503196885L696.4553321452333 357.85586503196885L696.4553321452333 427.85007778890804L716.6520913450446 427.85007778890804Q720.6162117037469 427.85007778890804 722.3812579948478 429.6151240800091Q724.1463042859489 431.38017037111007 724.1463042859489 435.3442907298123L724.1463042859489 435.3442907298123L724.1463042859489 460.14174436052616Q724.1463042859489 464.1058647192284 722.3812579948478 465.8709110103294Q720.6162117037469 467.6359573014304 716.6520913450446 467.6359573014304L716.6520913450446 467.6359573014304ZM853.9495446446216 467.6359573014304L853.9495446446216 467.6359573014304L757.2770912254674 467.6359573014304Q753.3129708667652 467.6359573014304 751.5479245756642 465.8709110103294Q749.7828782845633 464.1058647192284 749.7828782845633 460.14174436052616L749.7828782845633 460.14174436052616L749.7828782845633 325.13017068385045Q749.7828782845633 321.16605032514826 751.5479245756642 319.4010040340473Q753.3129708667652 317.63595774294623 757.2770912254674 317.63595774294623L757.2770912254674 317.63595774294623L853.9495446446216 317.63595774294623Q857.9136650033239 317.63595774294623 859.6787112944248 319.4010040340473Q861.4437575855259 321.16605032514826 861.4437575855259 325.13017068385045L861.4437575855259 325.13017068385045L861.4437575855259 349.52253172316415Q861.4437575855259 353.4577168967663 859.6787112944248 355.2516983729673Q857.9136650033239 357.01674466406837 853.9495446446216 357.01674466406837L853.9495446446216 357.01674466406837L796.4553318508894 357.01674466406837L796.4553318508894 373.04683720947736L837.0803317313122 373.04683720947736Q841.0155169049143 373.04683720947736 842.8094983811154 374.81188350057835Q844.5745446722163 376.60586497677934 844.5745446722163 380.5410501503815L844.5745446722163 380.5410501503815L844.5745446722163 402.85007786249406Q844.5745446722163 406.8141982211963 842.8094983811154 408.57924451229724Q841.0155169049143 410.3442908033983 837.0803317313122 410.3442908033983L837.0803317313122 410.3442908033983L796.4553318508894 410.3442908033983L796.4553318508894 428.2551703803083L853.9495446446216 428.2551703803083Q857.9136650033239 428.2551703803083 859.6787112944248 430.0202166714093Q861.4437575855259 431.8141981476103 861.4437575855259 435.7493833212125L861.4437575855259 435.7493833212125L861.4437575855259 460.14174436052616Q861.4437575855259 464.1058647192284 859.6787112944248 465.8709110103294Q857.9136650033239 467.6359573014304 853.9495446446216 467.6359573014304ZM999.5803312530032 467.6359573014304L999.5803312530032 467.6359573014304L933.9553314461665 467.6359573014304Q907.913664856152 467.6359573014304 895.2979241525449 457.2192906654245Q882.6821834489377 446.80262402941867 882.6821834489377 425.13017038950653L882.6821834489377 425.13017038950653L882.6821834489377 360.1417446548701Q882.6821834489377 338.46929101495795 895.2979241525449 328.0526243789521Q907.913664856152 317.63595774294623 933.9553314461665 317.63595774294623L933.9553314461665 317.63595774294623L986.0386646261957 317.63595774294623Q989.9738497997979 317.63595774294623 991.7678312759989 319.4010040340473Q993.5328775671 321.16605032514826 993.5328775671 325.13017068385045L993.5328775671 325.13017068385045L993.5328775671 350.3327169059646Q993.5328775671 354.2968372646668 991.7678312759989 356.0618835557678Q989.9738497997979 357.85586503196885 986.0386646261957 357.85586503196885L986.0386646261957 357.85586503196885L942.6937573463714 357.85586503196885Q936.2412110690677 357.85586503196885 933.116211078266 360.46003169097025Q929.9912110874642 363.0641983499717 929.9912110874642 368.27253166797465L929.9912110874642 368.27253166797465L929.9912110874642 418.0410500400026Q929.9912110874642 423.2493833580055 932.3928314507656 425.76674446170693Q934.7655166289669 428.2551703803083 939.5687573555696 428.2551703803083L939.5687573555696 428.2551703803083L959.7655165553809 428.2551703803083L959.7655165553809 395.7609575129901Q959.7655165553809 391.79683715428786 961.5594980315819 390.03179086318687Q963.324544322683 388.2667445720859 967.2886646813852 388.2667445720859L967.2886646813852 388.2667445720859L999.5803312530032 388.2667445720859Q1003.5155164266055 388.2667445720859 1005.3094979028065 390.03179086318687Q1007.0745441939074 391.79683715428786 1007.0745441939074 395.7609575129901L1007.0745441939074 395.7609575129901L1007.0745441939074 460.14174436052616Q1007.0745441939074 464.1058647192284 1005.3094979028065 465.8709110103294Q1003.5155164266055 467.6359573014304 999.5803312530032 467.6359573014304ZM1136.64630307178 467.6359573014304L1136.64630307178 467.6359573014304L1039.9738496526259 467.6359573014304Q1036.0386644790237 467.6359573014304 1034.2446830028225 465.8709110103294Q1032.4796367117217 464.1058647192284 1032.4796367117217 460.14174436052616L1032.4796367117217 460.14174436052616L1032.4796367117217 325.13017068385045Q1032.4796367117217 321.16605032514826 1034.2446830028225 319.4010040340473Q1036.0386644790237 317.63595774294623 1039.9738496526259 317.63595774294623L1039.9738496526259 317.63595774294623L1136.64630307178 317.63595774294623Q1140.6104234304823 317.63595774294623 1142.3754697215834 319.4010040340473Q1144.1405160126842 321.16605032514826 1144.1405160126842 325.13017068385045L1144.1405160126842 325.13017068385045L1144.1405160126842 349.52253172316415Q1144.1405160126842 353.4577168967663 1142.3754697215834 355.2516983729673Q1140.6104234304823 357.01674466406837 1136.64630307178 357.01674466406837L1136.64630307178 357.01674466406837L1079.152090278048 357.01674466406837L1079.152090278048 373.04683720947736L1119.7770901584706 373.04683720947736Q1123.741210517173 373.04683720947736 1125.506256808274 374.81188350057835Q1127.271303099375 376.60586497677934 1127.271303099375 380.5410501503815L1127.271303099375 380.5410501503815L1127.271303099375 402.85007786249406Q1127.271303099375 406.8141982211963 1125.506256808274 408.57924451229724Q1123.741210517173 410.3442908033983 1119.7770901584706 410.3442908033983L1119.7770901584706 410.3442908033983L1079.152090278048 410.3442908033983L1079.152090278048 428.2551703803083L1136.64630307178 428.2551703803083Q1140.6104234304823 428.2551703803083 1142.3754697215834 430.0202166714093Q1144.1405160126842 431.8141981476103 1144.1405160126842 435.7493833212125L1144.1405160126842 435.7493833212125L1144.1405160126842 460.14174436052616Q1144.1405160126842 464.1058647192284 1142.3754697215834 465.8709110103294Q1140.6104234304823 467.6359573014304 1136.64630307178 467.6359573014304ZM1282.2770896801617 467.6359573014304L1282.2770896801617 467.6359573014304L1176.2296362886023 467.6359573014304Q1172.2655159299002 467.6359573014304 1170.5004696387991 465.8709110103294Q1168.735423347698 464.1058647192284 1168.735423347698 460.14174436052616L1168.735423347698 460.14174436052616L1168.735423347698 325.13017068385045Q1168.735423347698 321.16605032514826 1170.5004696387991 319.4010040340473Q1172.2655159299002 317.63595774294623 1176.2296362886023 317.63595774294623L1176.2296362886023 317.63595774294623L1208.5213028602204 317.63595774294623Q1212.4854232189227 317.63595774294623 1214.2504695100238 319.4010040340473Q1216.0155158011246 321.16605032514826 1216.0155158011246 325.13017068385045L1216.0155158011246 325.13017068385045L1216.0155158011246 428.2551703803083L1244.5745434948408 428.2551703803083L1244.5745434948408 394.51674455368936Q1244.5745434948408 390.5526241949872 1246.3395897859418 388.78757790388613Q1248.1046360770429 387.0225316127852 1252.068756435745 387.0225316127852L1252.068756435745 387.0225316127852L1282.2770896801617 387.0225316127852Q1286.2412100388642 387.0225316127852 1288.0062563299648 388.78757790388613Q1289.7713026210658 390.5526241949872 1289.7713026210658 394.51674455368936L1289.7713026210658 394.51674455368936L1289.7713026210658 460.14174436052616Q1289.7713026210658 464.1058647192284 1288.0062563299648 465.8709110103294Q1286.2412100388642 467.6359573014304 1282.2770896801617 467.6359573014304ZM1383.1162097537185 467.6359573014304L1383.1162097537185 467.6359573014304L1317.2886636511812 467.6359573014304Q1313.3245432924791 467.6359573014304 1311.559497001378 465.8709110103294Q1309.7655155251773 464.1058647192284 1309.7655155251773 460.14174436052616L1309.7655155251773 460.14174436052616L1309.7655155251773 435.7493833212125Q1309.7655155251773 431.8141981476103 1311.559497001378 430.0202166714093Q1313.3245432924791 428.2551703803083 1317.2886636511812 428.2551703803083L1317.2886636511812 428.2551703803083L1373.3071820048126 428.2551703803083Q1376.0270894042142 428.2551703803083 1377.3870431039154 426.4901240892073Q1378.7469968036157 424.7250777981063 1378.7469968036157 422.2077166944049L1378.7469968036157 422.2077166944049Q1378.7469968036157 418.6776241122029 1377.3870431039154 416.99938337640197Q1376.0270894042142 415.3500778257011 1373.3071820048126 415.14753153000095L1373.3071820048126 415.14753153000095L1342.0571820967953 410.7493833947985Q1327.4738488063872 408.6660500675973 1318.6196821657823 401.1718371266931Q1309.7655155251773 393.6776241857889 1309.7655155251773 376.17183720027907L1309.7655155251773 376.17183720027907L1309.7655155251773 354.2968372646668Q1309.7655155251773 336.58850398345686 1321.2238488247835 327.1266984557516Q1332.6821821243902 317.63595774294623 1352.9078765093013 317.63595774294623L1352.9078765093013 317.63595774294623L1411.241209670934 317.63595774294623Q1415.2053300296366 317.63595774294623 1416.9703763207376 319.4010040340473Q1418.7354226118382 321.16605032514826 1418.7354226118382 325.13017068385045L1418.7354226118382 325.13017068385045L1418.7354226118382 349.92762431456435Q1418.7354226118382 353.8917446732666 1416.9703763207376 355.6567909643676Q1415.2053300296366 357.4218372554686 1411.241209670934 357.4218372554686L1411.241209670934 357.4218372554686L1362.687969073107 357.4218372554686Q1359.9969968588057 357.4218372554686 1358.5213024187046 359.18688354656956Q1357.0745431637038 360.98086502277056 1357.0745431637038 363.67183723707205L1357.0745431637038 363.67183723707205Q1357.0745431637038 366.3917446364736 1358.5213024187046 368.27253166797465Q1359.9969968588057 370.1243835143757 1362.687969073107 370.3558649951758L1362.687969073107 370.3558649951758L1393.735422685424 374.5225316495782Q1408.3187559758326 376.60586497677934 1417.2886633568378 384.1000779176835Q1426.2296355527424 391.5942908585877 1426.2296355527424 409.10007784409754L1426.2296355527424 409.10007784409754L1426.2296355527424 430.9750777797098Q1426.2296355527424 448.68341106091975 1414.684496697836 458.1452165886251Q1403.1104226578295 467.6359573014304 1383.1162097537185 467.6359573014304Z " fill="#1d1b1b" transform="matrix(0.6135056689358277,0,0,0.6135056689358276,0,59.11559337751059)"/></g></svg>
